<?xml version='1.0' encoding='iso-8859-1'?>
<!-- Uploaded to: SVG Repo, www.svgrepo.com, Generator: SVG Repo Mixer Tools -->
<svg fill="#000000" height="800px" width="800px" version="1.1" xmlns="http://www.w3.org/2000/svg" viewBox="0 0 470 470" xmlns:xlink="http://www.w3.org/1999/xlink" enable-background="new 0 0 470 470">
  <g>
    <path d="m77.5,375h40c4.142,0 7.5-3.358 7.5-7.5v-40c0-15.164-12.336-27.5-27.5-27.5s-27.5,12.336-27.5,27.5v40c0,4.142 3.358,7.5 7.5,7.5zm7.5-47.5c0-6.893 5.607-12.5 12.5-12.5s12.5,5.607 12.5,12.5v32.5h-25v-32.5z"/>
    <path d="m352.5,375h40c4.142,0 7.5-3.358 7.5-7.5v-40c0-15.164-12.336-27.5-27.5-27.5s-27.5,12.336-27.5,27.5v40c0,4.142 3.358,7.5 7.5,7.5zm7.5-47.5c0-6.893 5.607-12.5 12.5-12.5s12.5,5.607 12.5,12.5v32.5h-25v-32.5z"/>
    <path d="m470,255v-74.539c0-12.407-10.093-22.5-22.5-22.5h-10c-12.407,0-22.5,10.093-22.5,22.5v23.039h-15v-23.039c0-11.561-8.766-21.11-20-22.358v-52.642c0-0.238-0.013-0.475-0.036-0.71-0.009-0.097-0.025-0.192-0.038-0.288-0.018-0.134-0.036-0.269-0.061-0.402-0.022-0.116-0.049-0.23-0.077-0.344-0.026-0.109-0.053-0.219-0.084-0.327-0.035-0.122-0.073-0.241-0.114-0.36-0.017-0.05-0.03-0.101-0.048-0.151l-35-95.461c-1.083-2.954-3.895-4.918-7.042-4.918s-5.958,1.964-7.042,4.918l-11.198,30.543h-168.17l-11.198-30.543c-1.083-2.955-3.895-4.918-7.042-4.918s-5.958,1.964-7.042,4.918l-35,95.461c-0.018,0.05-0.031,0.101-0.048,0.151-0.041,0.119-0.079,0.238-0.114,0.36-0.031,0.108-0.058,0.217-0.084,0.327-0.027,0.114-0.055,0.228-0.077,0.344-0.025,0.133-0.043,0.267-0.061,0.402-0.013,0.096-0.029,0.191-0.038,0.288-0.022,0.236-0.036,0.473-0.036,0.71v52.605c-11.401,1.086-20.35,10.714-20.35,22.395v23.039h-15v-23.039c0-12.407-10.093-22.5-22.5-22.5h-10c-12.407,0-22.5,10.093-22.5,22.5v74.539c0,9.778 6.271,18.114 15,21.21v122.58c-8.729,3.096-15,11.432-15,21.21v40c0,4.142 3.358,7.5 7.5,7.5h365c4.142,0 7.5-3.358 7.5-7.5s-3.358-7.5-7.5-7.5h-357.5v-32.5c0-4.136 3.364-7.5 7.5-7.5h425c4.136,0 7.5,3.364 7.5,7.5v32.5h-52.5c-4.142,0-7.5,3.358-7.5,7.5s3.358,7.5 7.5,7.5h60c4.142,0 7.5-3.358 7.5-7.5v-40c0-9.778-6.271-18.114-15-21.21v-122.58c8.729-3.096 15-11.432 15-21.21zm-85-74.539v30.539c0,4.142 3.358,7.5 7.5,7.5h30c4.142,0 7.5-3.358 7.5-7.5v-30.539c0-4.136 3.364-7.5 7.5-7.5h10c4.136,0 7.5,3.364 7.5,7.5v74.539c0,4.136-3.364,7.5-7.5,7.5h-150c-4.136,0-7.5-3.364-7.5-7.5v-74.539c0-4.136 3.364-7.5 7.5-7.5h10c4.136,0 7.5,3.364 7.5,7.5v30.539c0,4.142 3.358,7.5 7.5,7.5h30c4.142,0 7.5-3.358 7.5-7.5v-30.539c0-4.136 3.364-7.5 7.5-7.5h10c4.136,0 7.5,3.365 7.5,7.5zm-220,97.039v97.5c0,4.142 3.358,7.5 7.5,7.5s7.5-3.358 7.5-7.5v-60h110v60c0,4.142 3.358,7.5 7.5,7.5s7.5-3.358 7.5-7.5v-97.5h135v120h-410v-120h135zm30-22.5v-74.539c0-12.407-10.093-22.5-22.5-22.5h-10c-12.407,0-22.5,10.093-22.5,22.5v23.039h-15v-23.039c0-11.441-8.585-20.907-19.649-22.313v-45.187h55v22.5c0,4.142 3.358,7.5 7.5,7.5s7.5-3.358 7.5-7.5v-22.5h119.649v22.5c0,4.142 3.358,7.5 7.5,7.5s7.5-3.358 7.5-7.5v-22.5h55v45.142c-11.234,1.248-20,10.796-20,22.358v23.039h-15v-23.039c0-12.407-10.093-22.5-22.5-22.5h-10c-12.407,0-22.5,10.093-22.5,22.5v74.539c0,9.778 6.271,18.114 15,21.21v23.79h-110v-23.79c8.729-3.096 15-11.432 15-21.21zm142.5-223.212l24.262,66.174h-48.524l24.262-66.174zm-23.739,21.173l-16.499,45h-124.174l-16.499-45h157.172zm-180.911-21.173l24.262,66.174h-48.524l24.262-66.174zm-117.85,148.673c0-4.136 3.364-7.5 7.5-7.5h10c4.136,0 7.5,3.364 7.5,7.5v30.539c0,4.142 3.358,7.5 7.5,7.5h30c4.142,0 7.5-3.358 7.5-7.5v-30.539c0-4.136 3.364-7.5 7.5-7.5h10c4.136,0 7.5,3.364 7.5,7.5v30.539c0,4.142 3.358,7.5 7.5,7.5h30c4.142,0 7.5-3.358 7.5-7.5v-30.539c0-4.136 3.364-7.5 7.5-7.5h10c4.136,0 7.5,3.364 7.5,7.5v74.539c0,4.136-3.364,7.5-7.5,7.5h-150c-4.136,0-7.5-3.364-7.5-7.5v-74.539z"/>
    <path d="m217.5,187.961h35c4.142,0 7.5-3.358 7.5-7.5s-3.358-7.5-7.5-7.5h-35c-4.142,0-7.5,3.358-7.5,7.5s3.358,7.5 7.5,7.5z"/>
  </g>
</svg>