<?xml version="1.0" encoding="iso-8859-1"?>
<!-- Uploaded to: SVG Repo, www.svgrepo.com, Generator: SVG Repo Mixer Tools -->
<!DOCTYPE svg PUBLIC "-//W3C//DTD SVG 1.1//EN" "http://www.w3.org/Graphics/SVG/1.1/DTD/svg11.dtd">
<svg fill="#000000" version="1.1" id="Capa_1" xmlns="http://www.w3.org/2000/svg" xmlns:xlink="http://www.w3.org/1999/xlink" 
	 width="800px" height="800px" viewBox="0 0 168.502 168.502"
	 xml:space="preserve">
<g>
	<path d="M168.502,74.933c0-9.173-7.468-16.643-16.644-16.643c-9.187,0-16.653,7.47-16.653,16.643c0,7.615,5.168,13.99,12.16,15.957
		l-16.843,8.433L90.347,59.16c6.22-2.413,10.671-8.435,10.671-15.494c0-9.173-7.468-16.654-16.654-16.654
		c-9.173,0-16.643,7.48-16.643,16.654c0,7.006,4.358,12.983,10.486,15.433L37.979,99.322L21.136,90.89
		c6.993-1.967,12.161-8.342,12.161-15.957c0-9.173-7.478-16.643-16.653-16.643C7.47,58.29,0,65.76,0,74.933
		c0,8.008,5.698,14.729,13.247,16.311c-0.34,0.602-0.546,1.287-0.546,1.994v31.577v1.477v0.559c0,2.067,1.577,3.713,3.581,3.955
		c13.558,10.325,61.678,10.685,67.964,10.685s54.403-0.349,67.967-10.685c2.004-0.242,3.586-1.894,3.586-3.955v-0.559v-1.477V93.237
		c0-0.707-0.2-1.393-0.549-1.994C162.801,89.661,168.502,82.951,168.502,74.933z M147.688,99.797v16.422
		c-0.153-0.074-0.332-0.138-0.507-0.211l-10.631-10.632L147.688,99.797z M84.241,133.389c-16.53,0-29.874-1.033-40.015-2.489
		c-10.676-1.519-17.737-3.48-21.226-5.146l2.958-2.953l0.166-0.169c5.682-1.909,15.649-3.966,29.813-5.231
		c4.899-0.432,10.278-0.759,16.179-0.959c2.618-0.09,5.358-0.138,8.182-0.169c1.308-0.011,2.587-0.032,3.937-0.032
		c1.432,0,2.792,0.021,4.164,0.032c2.742,0.031,5.41,0.084,7.968,0.169c5.896,0.2,11.274,0.527,16.179,0.959
		c14.159,1.256,24.132,3.312,29.811,5.231l0.164,0.169l2.964,2.953c-3.486,1.677-10.547,3.628-21.221,5.146
		C114.117,132.345,100.781,133.389,84.241,133.389z M39.566,109.194l3.185,1.604c-1.927,0.273-3.839,0.574-5.708,0.917
		L39.566,109.194z M128.915,109.194l2.521,2.521c-1.867-0.337-3.766-0.644-5.706-0.917L128.915,109.194z M122.881,103.161
		l-12.055,6.033c-9.129-0.712-17.439-0.955-22.418-1.023v-39.49L122.881,103.161z M75.806,43.661c0-4.714,3.839-8.554,8.553-8.554
		c4.715,0,8.543,3.839,8.543,8.554c0,4.715-3.828,8.554-8.543,8.554C79.645,52.215,75.806,48.376,75.806,43.661z M80.309,68.449
		v39.717c-4.957,0.073-13.381,0.306-22.642,1.018l-12.052-6.032L80.309,68.449z M31.931,105.376l-10.639,10.632
		c-0.161,0.073-0.34,0.137-0.506,0.211V99.797L31.931,105.376z M8.084,74.933c0-4.704,3.829-8.543,8.543-8.543
		s8.554,3.839,8.554,8.543c0,4.715-3.839,8.554-8.554,8.554S8.084,79.647,8.084,74.933z M151.859,83.486
		c-4.714,0-8.554-3.839-8.554-8.554c0-4.704,3.84-8.543,8.554-8.543c4.715,0,8.543,3.839,8.543,8.543
		C160.402,79.647,156.574,83.486,151.859,83.486z"/>
</g>
</svg>