<?xml version="1.0"?>
<svg width="640" height="480" xmlns="http://www.w3.org/2000/svg" xmlns:svg="http://www.w3.org/2000/svg" xmlns:xlink="http://www.w3.org/1999/xlink">
 <!-- Created with SVG-edit - https://github.com/SVG-Edit/svgedit-->
 <defs>
  <symbol class="iconify iconify--emojione-monotone" height="800px" id="svg_7" preserveAspectRatio="xMidYMid meet" viewBox="0 0 64 64" width="800px" xmlns="http://www.w3.org/2000/svg" xmlns:xlink="http://www.w3.org/1999/xlink">
   <path d="m31.999,29.592c-1.126,0 -2.229,0.034 -3.321,0.078l-1.732,-13.061l0.19,-0.045l-0.308,-3.564l-2.664,0l-4.028,0.25l0.405,3.756l0.938,0.036l1.291,11.394l-10.283,2.932l-1.557,-11.597l0.188,-0.058l-0.307,-3.564l-2.641,0l-4.053,0.25l0.495,3.688l0.851,0.08l1.777,14.106c-3.297,1.715 -5.24,3.786 -5.24,6.024c0,3.571 8.216,10.703 29.999,10.703c16.569,0 30.001,-4.791 30.001,-10.703s-13.432,-10.705 -30.001,-10.705m-8.617,-0.291s0.085,-0.012 0.212,-0.012c0.318,0 0.902,0.075 1.074,0.602c0.346,1.064 -0.635,1.693 -0.635,1.693l-11.075,3.303l-0.338,-2.518l10.762,-3.068m-11.604,17.024l-3.386,-25.882l0.274,0.025l1.295,-0.399l3.602,26.881c-0.414,-0.137 -1.641,-0.574 -1.785,-0.625m13.948,-2.639l-11.141,3.322l-0.338,-2.518l10.827,-3.088s0.085,-0.012 0.212,-0.012c0.319,0 0.903,0.075 1.074,0.602c0.346,1.065 -0.634,1.694 -0.634,1.694m2.474,5.311l-3.815,-31.843l0.24,0.01l1.343,-0.32l4.248,32.19c-0.618,-0.009 -1.38,-0.021 -2.016,-0.037" fill="#000000"/>
  </symbol>
  <symbol height="800px" id="svg_22" viewBox="0 0 177.501 177.501" width="800px" xmlns="http://www.w3.org/2000/svg" xmlns:xlink="http://www.w3.org/1999/xlink">
   <path d="m0,177.501c0,-97.875 79.627,-177.501 177.501,-177.501l0,15c-89.603,0 -162.501,72.898 -162.501,162.501l-15,0z"/>
  </symbol>
 </defs>
 <g class="layer">
  <title>Layer 1</title>
  <g id="svg_3"/>
  <use id="svg_8" transform="matrix(0.788184 0 0 0.66427 148.105 161.816)" x="-182.544525" xlink:href="#svg_7" y="-175.417233"/>
  <g id="svg_9"/>
  <g id="svg_20"/>
  <use id="svg_23" transform="matrix(0.271102 0 0 0.220308 425.121 138.938)" x="-254.516922" xlink:href="#svg_22" y="-467.527655"/>
  <g id="svg_24"/>
  <use id="svg_25" transform="rotate(8.6308 518 163) matrix(0.243346 0 0 0.201054 264.676 213.9)" x="641.000698" xlink:href="#svg_22" y="-653.16415"/>
 </g>
</svg>