<?xml version="1.0"?>
<svg width="640" height="480" xmlns="http://www.w3.org/2000/svg" xmlns:svg="http://www.w3.org/2000/svg" xmlns:xlink="http://www.w3.org/1999/xlink">
 <!-- Created with SVG-edit - https://github.com/SVG-Edit/svgedit-->
 <defs>
  <symbol id="svg_1" viewBox="0 0 64 64" xmlns="http://www.w3.org/2000/svg">
   <title>mountain, camping, mountains</title>
   <g id="svg_5">
    <path d="m62.123,42.763l-12.652,-14.371l0,0l-0.015,-0.017a3.8,3.8 0 0 1 -0.137,-0.109l-0.009,0a0.477,0.477 0 0 0 -0.133,-0.041a0.425,0.425 0 0 0 -0.051,-0.014a0.494,0.494 0 0 0 -0.3,0.075a0.442,0.442 0 0 0 -0.061,0.032l0,0l-4.324,3.482l-9.716,-11.22c-0.011,-0.012 -0.026,-0.015 -0.037,-0.026a0.471,0.471 0 0 0 -0.129,-0.091a0.493,0.493 0 0 0 -0.064,-0.024a0.618,0.618 0 0 0 -0.072,-0.026a0.6,0.6 0 0 0 -0.073,0c-0.018,0 -0.033,-0.009 -0.051,-0.008s-0.024,0.011 -0.037,0.013a0.531,0.531 0 0 0 -0.116,0.04a0.5,0.5 0 0 0 -0.084,0.04a0.493,0.493 0 0 0 -0.142,0.149l-0.007,0.007l-5.129,8.926l-2.978,0a0.5,0.5 0 0 0 -0.348,0.14l-4.5,4.339l-5.071,-2.59c-0.009,-0.005 -0.018,0 -0.027,-0.005a0.485,0.485 0 0 0 -0.252,-0.046c-0.007,0 -0.014,0 -0.022,0.006a0.466,0.466 0 0 0 -0.156,0.046a0.434,0.434 0 0 0 -0.058,0.046c-0.01,0.007 -0.023,0.006 -0.033,0.014l-13.408,11.179a0.5,0.5 0 0 0 0.641,0.768l12.928,-10.777l2.34,4.532l-0.5,5.069a0.5,0.5 0 0 0 0.5,0.549a0.5,0.5 0 0 0 0.372,-0.165l7.89,-8.755l2.876,5.443a0.539,0.539 0 0 0 0.458,0.267a0.5,0.5 0 0 0 0.44,-0.3l3.21,-7.137a0.479,0.479 0 0 0 0.038,-0.129l1.551,-10.024l8.984,10.37l-5.667,4.491a0.5,0.5 0 0 0 0.311,0.892a0.491,0.491 0 0 0 0.31,-0.109l6.076,-4.815l0,0l2.764,-2.224l-3.215,5.933l-9.208,4.8a0.5,0.5 0 0 0 0.232,0.943a0.493,0.493 0 0 0 0.231,-0.057l9.347,-4.874a0.5,0.5 0 0 0 0.208,-0.2l4.13,-7.624l12.2,13.85a0.5,0.5 0 1 0 0.75,-0.66l-0.005,-0.003zm-29.979,-10.907l-2.763,6.144l-2.732,-5.171a0.5,0.5 0 0 0 -0.814,-0.1l-7.35,8.156l0.366,-3.7a0.509,0.509 0 0 0 -0.051,-0.285l-1.98,-3.834l4,2.044a0.5,0.5 0 0 0 0.575,-0.085l4.612,-4.446l3.066,0a0.5,0.5 0 0 0 0.434,-0.251l3.934,-6.843l-1.297,8.371z" id="svg_6"/>
   </g>
  </symbol>
 </defs>
 <g class="layer">
  <title>Layer 1</title>
  <use id="svg_2" transform="matrix(1 0 0 1 0 0) matrix(1.32609 0 0 1.80902 -10.0271 -100.545)" x="-70.692737" xlink:href="#svg_1" y="-5.733234"/>
  <g id="svg_3"/>
 </g>
</svg>